<svg width="24.000000" height="24.000000" viewBox="0 0 24 24" fill="none" xmlns="http://www.w3.org/2000/svg" xmlns:xlink="http://www.w3.org/1999/xlink">
	<desc>
			Created with Pixso.
	</desc>
	<defs>
		<clipPath id="clip196_499">
			<rect id="shopping-bag-line 1" rx="0.000000" width="23.000000" height="23.000000" transform="translate(0.500000 0.500000)" fill="white" fill-opacity="0"/>
		</clipPath>
	</defs>
	<rect id="shopping-bag-line 1" rx="0.000000" width="23.000000" height="23.000000" transform="translate(0.500000 0.500000)" fill="#FFFFFF" fill-opacity="0"/>
	<g clip-path="url(#clip196_499)">
		<path id="Vector" d="M7 8L7 6C7 4.67 7.07 2.93 8 2C8.92 1.06 10.68 1 12 1C13.31 1 15.07 1.06 16 2C16.92 2.93 17 4.67 17 6L17 8L20 8C20.26 8 20.81 7.81 21 8C21.18 8.18 21 8.73 21 9L21 21C21 21.26 21.18 21.81 21 22C20.81 22.18 20.26 22 20 22L4 22C3.73 22 3.18 22.18 3 22C2.81 21.81 3 21.26 3 21L3 9C3 8.73 2.81 8.18 3 8C3.18 7.81 3.73 8 4 8L7 8ZM7 10L5 10L5 20L19 20L19 10L17 10L17 12L15 12L15 10L9 10L9 12L7 12L7 10ZM9 8L15 8L15 6C15 5.2 14.55 4.56 14 4C13.44 3.43 12.78 3 12 3C11.21 3 10.55 3.43 10 4C9.44 4.56 9 5.2 9 6L9 8Z" fill="#C4C4C4" fill-opacity="1.000000" fill-rule="nonzero"/>
	</g>
</svg>
